<svg xmlns="http://www.w3.org/2000/svg" xmlns:xlink="http://www.w3.org/1999/xlink" width="1152" height="1152" style="width:100%;height:100%;transform:translate3d(0,0,0);content-visibility:visible"><defs><clipPath id="b"><path d="M0 0h1152v1152H0z"/></clipPath><mask id="c" mask-type="alpha"><use xlink:href="#a"/></mask><g id="a" style="display:block"><path fill="#D9D9D9" d="M864.001 744v108.002H287.995V743.999H864z"/></g></defs><g clip-path="url(#b)"><g mask="url(#c)" style="display:block"><path d="M505.997 744c0-39.764 32.237-72.001 72.001-72.001 39.765 0 72 32.237 72 72.002 0 39.765-32.235 72.001-72 72.001-39.764 0-72-32.236-72-72.001zm72.001 36.002c19.882 0 36-16.119 36-36.001 0-19.883-16.118-36.001-36-36.001s-36 16.118-36 36c0 19.883 16.118 36.002 36 36.002z"/></g><g style="display:block"><path d="m750.928 500.37 15.646 232.733c.397 5.899-4.28 10.902-10.193 10.902H394.198c-5.898 0-10.567-4.986-10.18-10.872l15.306-232.519c6.096-92.615 82.995-164.62 175.81-164.62 92.72 0 169.575 71.863 175.794 164.375zm-22.123 207.634-13.795-205.22c-4.948-73.61-66.101-130.789-139.876-130.789-73.85 0-135.037 57.293-139.888 130.984l-13.495 205.025h307.054z"/></g></g></svg>