<svg xmlns="http://www.w3.org/2000/svg" width="40" height="40" fill="none"><rect width="39.5" height="39.5" x=".25" y=".25" fill="#fff" rx="19.75"/><path fill="#000" fill-rule="evenodd" d="M20.847 23.687c0 .067.053.12.12.12h8.913a.12.12 0 0 0 .12-.12v-8.146c0-1.994-.713-3.614-2.153-4.747C26.52 9.754 24.533 9.127 21.88 9c-.067-.007-.12.046-.12.113v3.073c0 .06.047.107.107.114 2.333.153 4.106.846 4.106 3.28h-5.006a.12.12 0 0 0-.12.12v7.986ZM10 15.701a.12.12 0 0 1 .12-.12h8.913a.12.12 0 0 1 .12.12v8.14c0 1.993-.713 3.613-2.153 4.746-1.327 1.04-3.313 1.667-5.967 1.794-.066.006-.12-.047-.12-.114v-3.073c0-.06.047-.107.107-.113 2.333-.154 4.107-.847 4.107-3.28H10.12a.12.12 0 0 1-.12-.12V15.7Z" class="SvgLink__SvgLinkStyles__innerLogo" clip-rule="evenodd"/><rect width="39.5" height="39.5" x=".25" y=".25" stroke="#000" stroke-width=".5" class="SvgLink__SvgLinkStyles__border" rx="19.75"/></svg>