<svg xmlns="http://www.w3.org/2000/svg" width="40" height="40" fill="none"><rect width="39.5" height="39.5" x=".25" y=".25" fill="#fff" rx="19.75"/><path fill="#000" fill-rule="evenodd" d="M25 11H15a4 4 0 0 0-4 4v10a4 4 0 0 0 4 4h10a4 4 0 0 0 4-4V15a4 4 0 0 0-4-4ZM15 9a6 6 0 0 0-6 6v10a6 6 0 0 0 6 6h10a6 6 0 0 0 6-6V15a6 6 0 0 0-6-6H15Zm5 14.7a3.7 3.7 0 1 0 0-7.4 3.7 3.7 0 0 0 0 7.4Zm0 2a5.7 5.7 0 1 0 0-11.4 5.7 5.7 0 0 0 0 11.4Zm5.7-10.4a1.4 1.4 0 1 0 0-2.8 1.4 1.4 0 0 0 0 2.8Z" clip-rule="evenodd"/><rect width="39.5" height="39.5" x=".25" y=".25" stroke="#000" stroke-width=".5" class="SvgLink__SvgLinkStyles__border" rx="19.75"/></svg>