<svg xmlns="http://www.w3.org/2000/svg" width="40" height="40" fill="none"><rect width="39.5" height="39.5" x=".25" y=".25" fill="#fff" rx="19.75"/><path fill="#000" d="M27.012 13.215a5.496 5.496 0 0 1-2.498-4.597h-3.943l-.006 15.8a3.316 3.316 0 0 1-3.308 3.19 3.317 3.317 0 0 1-3.314-3.314 3.318 3.318 0 0 1 3.314-3.314c.342 0 .668.056.978.153v-4.025a7.235 7.235 0 0 0-.978-.07c-4.001 0-7.257 3.255-7.257 7.257a7.251 7.251 0 0 0 3.098 5.941 7.213 7.213 0 0 0 4.16 1.315c4 0 7.256-3.255 7.256-7.257V16.28A9.376 9.376 0 0 0 30 18.045v-3.943c-1.1 0-2.127-.327-2.987-.888Z"/><rect width="39.5" height="39.5" x=".25" y=".25" stroke="#000" stroke-width=".5" class="SvgLink__SvgLinkStyles__border" rx="19.75"/></svg>