<svg xmlns="http://www.w3.org/2000/svg" width="40" height="40" fill="none"><rect width="39.5" height="39.5" x=".25" y=".25" fill="#fff" rx="19.75"/><path fill="#000" fill-rule="evenodd" d="M30.556 13.977a8.435 8.435 0 0 1-2.423.665 4.23 4.23 0 0 0 1.855-2.334 8.445 8.445 0 0 1-2.678 1.024 4.217 4.217 0 0 0-7.186 3.846 11.973 11.973 0 0 1-8.693-4.406 4.197 4.197 0 0 0-.571 2.12c0 1.463.745 2.754 1.876 3.51a4.2 4.2 0 0 1-1.91-.527v.053a4.22 4.22 0 0 0 3.383 4.135 4.223 4.223 0 0 1-1.905.072 4.221 4.221 0 0 0 3.94 2.929 8.461 8.461 0 0 1-5.238 1.805c-.34 0-.676-.02-1.006-.059a11.937 11.937 0 0 0 6.465 1.895c7.757 0 11.998-6.426 11.998-11.999 0-.183-.004-.365-.012-.545a8.574 8.574 0 0 0 2.105-2.184" clip-rule="evenodd"/><rect width="39.5" height="39.5" x=".25" y=".25" stroke="#000" stroke-width=".5" class="SvgLink__SvgLinkStyles__border" rx="19.75"/></svg>