<svg xmlns="http://www.w3.org/2000/svg" width="1152" height="1152" style="width:100%;height:100%;transform:translate3d(0,0,0);content-visibility:visible"><defs><clipPath id="a"><path d="M0 0h1152v1152H0z"/></clipPath></defs><g clip-path="url(#a)"><g style="display:block"><path d="M392.637 756.227C358.753 714.47 338.4 660.944 338.4 602.583 338.4 469.161 444.777 361 576 361s237.6 108.16 237.6 241.583c0 58.721-20.605 112.55-54.866 154.417a206.521 206.521 0 0 0-19.515-33.457c24.363-33.927 38.741-75.736 38.741-120.96 0-113.409-90.421-205.346-201.96-205.346s-201.96 91.937-201.96 205.346c0 44.919 14.184 86.468 38.248 120.27a206.516 206.516 0 0 0-19.651 33.374z"/></g><g style="display:block"><path d="M732.955 781.445c-42.124 36.584-97.124 58.728-157.296 58.728-60.531 0-115.829-22.409-158.049-59.384a167.95 167.95 0 0 1 17.058-33.179c36.631 35.039 86.297 56.563 140.991 56.563 54.389 0 103.806-21.284 140.377-55.978a167.947 167.947 0 0 1 16.919 33.25z"/></g><g style="display:block"><path d="M417.957 780.616C442.105 717.12 503.537 672 575.506 672c72.217 0 133.822 45.431 157.796 109.272a240.806 240.806 0 0 1-30.451 22.507C686.929 748.464 635.943 708 575.506 708c-60.244 0-111.098 40.205-127.192 95.248a240.888 240.888 0 0 1-30.357-22.632z"/></g><g style="display:block"><path fill="none" stroke="#000" stroke-width="36" d="M678.005 552c0 58.818-43.182 102-102 102s-102-43.182-102-102 43.182-102 102-102 102 43.182 102 102z"/></g></g></svg>