<svg xmlns="http://www.w3.org/2000/svg" width="40" height="40" fill="none"><rect width="39.5" height="39.5" x=".25" y=".25" fill="#fff" rx="19.75"/><path fill="#000" fill-rule="evenodd" d="M30.936 24.271s-.216 1.534-.88 2.21c-.843.886-1.788.89-2.22.943-3.101.225-7.757.232-7.757.232s-5.761-.053-7.534-.224c-.493-.093-1.6-.065-2.443-.951-.664-.676-.88-2.21-.88-2.21S9 22.471 9 20.67V18.98c0-1.801.222-3.603.222-3.603s.216-1.534.88-2.209c.843-.887 1.787-.891 2.22-.943C15.422 12 20.074 12 20.074 12h.01s4.65 0 7.751.225c.433.052 1.378.056 2.22.943.665.676.881 2.21.881 2.21s.221 1.8.221 3.602v1.689c0 1.801-.221 3.602-.221 3.602Zm-13.17-7.627v6.27l5.88-3.2-5.88-3.07Z" clip-rule="evenodd"/><rect width="39.5" height="39.5" x=".25" y=".25" stroke="#000" stroke-width=".5" class="SvgLink__SvgLinkStyles__border" rx="19.75"/></svg>